<?xml version="1.0" encoding="UTF-8" standalone="no"?>
<!-- Created with Inkscape (http://www.inkscape.org/) -->

<svg
   xmlns:dc="http://purl.org/dc/elements/1.1/"
   xmlns:cc="http://creativecommons.org/ns#"
   xmlns:rdf="http://www.w3.org/1999/02/22-rdf-syntax-ns#"
   xmlns:svg="http://www.w3.org/2000/svg"
   xmlns="http://www.w3.org/2000/svg"
   xmlns:sodipodi="http://sodipodi.sourceforge.net/DTD/sodipodi-0.dtd"
   xmlns:inkscape="http://www.inkscape.org/namespaces/inkscape"
   width="50"
   height="50"
   viewBox="0 0 50 49.999996"
   id="svg2"
   version="1.1"
   inkscape:version="0.91 r13725"
   sodipodi:docname="GitHub.svg">
  <title
     id="title4170">GitHub</title>
  <defs
     id="defs4" />
  <sodipodi:namedview
     id="base"
     pagecolor="#ffffff"
     bordercolor="#666666"
     borderopacity="1.0"
     inkscape:pageopacity="0.0"
     inkscape:pageshadow="2"
     inkscape:zoom="4"
     inkscape:cx="39.151679"
     inkscape:cy="63.862036"
     inkscape:document-units="px"
     inkscape:current-layer="layer1"
     showgrid="false"
     inkscape:object-nodes="true"
     inkscape:window-width="1920"
     inkscape:window-height="1005"
     inkscape:window-x="-9"
     inkscape:window-y="-9"
     inkscape:window-maximized="1"
     fit-margin-top="0"
     fit-margin-left="0"
     fit-margin-right="0"
     fit-margin-bottom="0"
     units="px" />
  <metadata
     id="metadata7">
    <rdf:RDF>
      <cc:Work
         rdf:about="">
        <dc:format>image/svg+xml</dc:format>
        <dc:type
           rdf:resource="http://purl.org/dc/dcmitype/StillImage" />
        <dc:title>GitHub</dc:title>
        <cc:license
           rdf:resource="http://creativecommons.org/publicdomain/zero/1.0/" />
      </cc:Work>
      <cc:License
         rdf:about="http://creativecommons.org/publicdomain/zero/1.0/">
        <cc:permits
           rdf:resource="http://creativecommons.org/ns#Reproduction" />
        <cc:permits
           rdf:resource="http://creativecommons.org/ns#Distribution" />
        <cc:permits
           rdf:resource="http://creativecommons.org/ns#DerivativeWorks" />
      </cc:License>
    </rdf:RDF>
  </metadata>
  <g
     inkscape:label="Ebene 1"
     inkscape:groupmode="layer"
     id="layer1"
     transform="translate(-265.51758,-239.20117)">
    <path
       style="color:#000000;clip-rule:nonzero;display:inline;overflow:visible;visibility:visible;opacity:1;isolation:auto;mix-blend-mode:normal;color-interpolation:sRGB;color-interpolation-filters:linearRGB;solid-color:#000000;solid-opacity:1;fill:#000000;fill-opacity:1;fill-rule:nonzero;stroke:none;stroke-width:2;stroke-linecap:round;stroke-linejoin:round;stroke-miterlimit:4;stroke-dasharray:none;stroke-dashoffset:0;stroke-opacity:1;marker:none;color-rendering:auto;image-rendering:auto;shape-rendering:auto;text-rendering:auto;enable-background:accumulate"
       d="m 290.51758,239.20117 a 25,25 0 0 0 -25,25 25,25 0 0 0 25,25 25,25 0 0 0 25,-25 25,25 0 0 0 -25,-25 z m 0,4.16667 a 20.833333,20.833333 0 0 1 20.83333,20.83333 20.833333,20.833333 0 0 1 -15.27994,20.07812 c -0.1277,-0.17837 -0.24977,-0.37415 -0.35401,-0.6079 0.282,-2.10554 1.27576,-6.41503 -1.31673,-10.04883 14.05754,-0.13389 9.65871,-14.6599 7.28434,-15.79753 0.29855,-0.61379 1.00312,-3.48097 -0.17497,-5.52897 -1.86441,-0.26265 -3.36826,0.51314 -5.70556,2.1932 -2.75415,-1.51271 -10.37027,-0.71131 -10.44352,0 -0.21995,-0.0179 -3.51669,-2.43001 -5.18881,-2.26237 -0.23887,0.0239 -0.445,0.10036 -0.60384,0.24414 -1.78483,1.61818 -0.48394,5.24607 0,5.39713 -3.34127,3.53536 -5.01391,14.39747 7.15332,15.88623 -0.68557,0.6827 -1.07064,1.69564 -1.27685,2.83122 -5.39384,1.50336 -5.30164,-2.61306 -8.43262,-4.05924 -0.55879,-0.2581 -1.38442,-0.005 -1.78792,0.45979 -0.3978,0.45824 0.83505,0.96031 1.42659,1.56088 2.62348,2.6635 1.04123,5.62654 8.58724,5.04801 0.0192,1.5406 0.17157,3.00109 0.21078,3.9445 -0.17176,0.28979 -0.34182,0.52129 -0.50782,0.71289 a 20.833333,20.833333 0 0 1 -15.25634,-20.05127 20.833333,20.833333 0 0 1 20.83333,-20.83333 z"
       id="rect4141"
       inkscape:connector-curvature="0" />
  </g>
</svg>
